<svg width="191" height="19" viewBox="0 0 191 19" fill="none" xmlns="http://www.w3.org/2000/svg">
<path d="M16.725 17.175C16.775 17.275 16.8 17.3833 16.8 17.5C16.8 17.6167 16.7417 17.7333 16.625 17.85C16.525 17.95 16.4 18 16.25 18H11.125C10.6083 18 10.25 17.775 10.05 17.325L7.9 12.55H6.875V17.325C6.875 17.5083 6.80833 17.6667 6.675 17.8C6.54167 17.9333 6.38333 18 6.2 18H1.3C1.11667 18 0.958333 17.9333 0.825 17.8C0.691667 17.6667 0.625 17.5083 0.625 17.325V1.175C0.625 0.991666 0.691667 0.833333 0.825 0.699999C0.958333 0.566666 1.11667 0.499999 1.3 0.499999H8.7C11.1 0.499999 12.975 1.04167 14.325 2.125C15.675 3.19167 16.35 4.73333 16.35 6.75C16.35 8.75 15.45 10.325 13.65 11.475L16.725 17.175ZM6.875 5.15V7.8H8.7C9.06667 7.8 9.35 7.68333 9.55 7.45C9.75 7.2 9.85 6.89167 9.85 6.525C9.85 6.15833 9.75 5.84167 9.55 5.575C9.36667 5.29167 9.08333 5.15 8.7 5.15H6.875ZM24.6547 0.499999H30.0797C30.6797 0.499999 31.0547 0.774999 31.2047 1.325L36.7797 17.275C36.7964 17.325 36.8047 17.4083 36.8047 17.525C36.8047 17.625 36.7464 17.7333 36.6297 17.85C36.5297 17.95 36.4047 18 36.2547 18H31.6297C31.1297 18 30.8047 17.7917 30.6547 17.375L30.0547 15.725H24.6797L24.0797 17.375C23.9297 17.7917 23.6047 18 23.1047 18H18.4797C18.3297 18 18.1964 17.95 18.0797 17.85C17.9797 17.7333 17.9297 17.625 17.9297 17.525C17.9297 17.4083 17.938 17.325 17.9547 17.275L23.5297 1.325C23.6797 0.774999 24.0547 0.499999 24.6547 0.499999ZM25.9547 10.85H28.7797L27.3547 6.2L25.9547 10.85ZM49.3586 0.499999H53.8836C54.0669 0.499999 54.2253 0.566666 54.3586 0.699999C54.4919 0.833333 54.5586 0.991666 54.5586 1.175V17.325C54.5586 17.5083 54.4919 17.6667 54.3586 17.8C54.2253 17.9333 54.0669 18 53.8836 18H49.9336C49.5003 18 49.1586 17.8083 48.9086 17.425L44.6836 11.05V17.325C44.6836 17.5083 44.6169 17.6667 44.4836 17.8C44.3503 17.9333 44.1919 18 44.0086 18H39.4836C39.3003 18 39.1419 17.9333 39.0086 17.8C38.8753 17.6667 38.8086 17.5083 38.8086 17.325V1.175C38.8086 0.991666 38.8753 0.833333 39.0086 0.699999C39.1419 0.566666 39.3003 0.499999 39.4836 0.499999H43.4336C43.9003 0.499999 44.2419 0.691665 44.4586 1.075L48.6836 8V1.175C48.6836 0.991666 48.7503 0.833333 48.8836 0.699999C49.0169 0.566666 49.1753 0.499999 49.3586 0.499999ZM66.7777 7.45H73.6527C73.8361 7.45 73.9944 7.51667 74.1277 7.65C74.2611 7.78333 74.3277 7.94167 74.3277 8.125V11.375C74.3277 13.575 73.5444 15.275 71.9777 16.475C70.4111 17.6583 68.3194 18.25 65.7027 18.25C63.1027 18.25 61.0527 17.675 59.5527 16.525C58.0527 15.3583 57.3027 13.6167 57.3027 11.3V7.1C57.3027 4.88333 58.0694 3.19167 59.6027 2.025C61.1361 0.841666 63.1777 0.249999 65.7277 0.249999C68.2944 0.249999 70.3694 0.791666 71.9527 1.875C73.5361 2.94167 74.3277 4.25833 74.3277 5.825C74.3277 5.975 74.2694 6.10833 74.1527 6.225C74.0527 6.325 73.9277 6.375 73.7777 6.375H68.2527C67.9194 6.375 67.6777 6.28333 67.5277 6.1C67.1944 5.66667 66.9444 5.41667 66.7777 5.35C66.3944 5.2 66.0444 5.125 65.7277 5.125C64.4444 5.125 63.8027 5.75 63.8027 7V11.25C63.8027 12.6667 64.4861 13.375 65.8527 13.375C67.2527 13.375 67.9527 12.775 67.9527 11.575H66.7777C66.5944 11.575 66.4361 11.5083 66.3027 11.375C66.1694 11.2417 66.1027 11.0833 66.1027 10.9V8.125C66.1027 7.94167 66.1694 7.78333 66.3027 7.65C66.4361 7.51667 66.5944 7.45 66.7777 7.45ZM83.0898 13.125H90.7898C90.9732 13.125 91.1315 13.1917 91.2648 13.325C91.3982 13.4583 91.4648 13.6167 91.4648 13.8V17.325C91.4648 17.5083 91.3982 17.6667 91.2648 17.8C91.1315 17.9333 90.9732 18 90.7898 18H77.7648C77.5815 18 77.4232 17.9333 77.2898 17.8C77.1565 17.6667 77.0898 17.5083 77.0898 17.325V1.175C77.0898 0.991666 77.1565 0.833333 77.2898 0.699999C77.4232 0.566666 77.5815 0.499999 77.7648 0.499999H90.5898C90.7732 0.499999 90.9315 0.566666 91.0648 0.699999C91.1982 0.833333 91.2648 0.991666 91.2648 1.175V4.7C91.2648 4.88333 91.1982 5.04167 91.0648 5.175C90.9315 5.30833 90.7732 5.375 90.5898 5.375H83.0898V6.95H90.0398C90.2232 6.95 90.3815 7.01667 90.5148 7.15C90.6482 7.28333 90.7148 7.44167 90.7148 7.625V10.875C90.7148 11.0583 90.6482 11.2167 90.5148 11.35C90.3815 11.4833 90.2232 11.55 90.0398 11.55H83.0898V13.125ZM117.824 17.175C117.874 17.275 117.899 17.3833 117.899 17.5C117.899 17.6167 117.84 17.7333 117.724 17.85C117.624 17.95 117.499 18 117.349 18H112.224C111.707 18 111.349 17.775 111.149 17.325L108.999 12.55H107.974V17.325C107.974 17.5083 107.907 17.6667 107.774 17.8C107.64 17.9333 107.482 18 107.299 18H102.399C102.215 18 102.057 17.9333 101.924 17.8C101.79 17.6667 101.724 17.5083 101.724 17.325V1.175C101.724 0.991666 101.79 0.833333 101.924 0.699999C102.057 0.566666 102.215 0.499999 102.399 0.499999H109.799C112.199 0.499999 114.074 1.04167 115.424 2.125C116.774 3.19167 117.449 4.73333 117.449 6.75C117.449 8.75 116.549 10.325 114.749 11.475L117.824 17.175ZM107.974 5.15V7.8H109.799C110.165 7.8 110.449 7.68333 110.649 7.45C110.849 7.2 110.949 6.89167 110.949 6.525C110.949 6.15833 110.849 5.84167 110.649 5.575C110.465 5.29167 110.182 5.15 109.799 5.15H107.974ZM122.053 2.1C123.587 0.866666 125.612 0.249999 128.128 0.249999C130.645 0.249999 132.662 0.874999 134.178 2.125C135.712 3.35833 136.478 5.1 136.478 7.35V11.25C136.478 13.5333 135.72 15.275 134.203 16.475C132.703 17.6583 130.678 18.25 128.128 18.25C125.578 18.25 123.545 17.6583 122.028 16.475C120.528 15.275 119.778 13.5333 119.778 11.25V7.35C119.778 5.08333 120.537 3.33333 122.053 2.1ZM126.778 12.875C127.112 13.2083 127.562 13.375 128.128 13.375C128.695 13.375 129.145 13.2083 129.478 12.875C129.812 12.5417 129.978 12.0333 129.978 11.35V7.15C129.978 6.48333 129.812 5.98333 129.478 5.65C129.145 5.3 128.695 5.125 128.128 5.125C127.562 5.125 127.112 5.3 126.778 5.65C126.445 5.98333 126.278 6.48333 126.278 7.15V11.35C126.278 12.0333 126.445 12.5417 126.778 12.875ZM150.174 0.499999H154.824C154.974 0.499999 155.099 0.558332 155.199 0.675C155.315 0.774999 155.374 0.874999 155.374 0.974999C155.374 1.075 155.365 1.15833 155.349 1.225L150.649 17.175C150.499 17.725 150.124 18 149.524 18H143.824C143.224 18 142.849 17.725 142.699 17.175L137.999 1.225C137.982 1.15833 137.974 1.075 137.974 0.974999C137.974 0.874999 138.024 0.774999 138.124 0.675C138.24 0.558332 138.374 0.499999 138.524 0.499999H143.174C143.774 0.499999 144.149 0.774999 144.299 1.325L146.674 10.625L149.049 1.325C149.199 0.774999 149.574 0.499999 150.174 0.499999ZM163.363 13.125H171.063C171.247 13.125 171.405 13.1917 171.538 13.325C171.672 13.4583 171.738 13.6167 171.738 13.8V17.325C171.738 17.5083 171.672 17.6667 171.538 17.8C171.405 17.9333 171.247 18 171.063 18H158.038C157.855 18 157.697 17.9333 157.563 17.8C157.43 17.6667 157.363 17.5083 157.363 17.325V1.175C157.363 0.991666 157.43 0.833333 157.563 0.699999C157.697 0.566666 157.855 0.499999 158.038 0.499999H170.863C171.047 0.499999 171.205 0.566666 171.338 0.699999C171.472 0.833333 171.538 0.991666 171.538 1.175V4.7C171.538 4.88333 171.472 5.04167 171.338 5.175C171.205 5.30833 171.047 5.375 170.863 5.375H163.363V6.95H170.313C170.497 6.95 170.655 7.01667 170.788 7.15C170.922 7.28333 170.988 7.44167 170.988 7.625V10.875C170.988 11.0583 170.922 11.2167 170.788 11.35C170.655 11.4833 170.497 11.55 170.313 11.55H163.363V13.125ZM190.846 17.175C190.896 17.275 190.921 17.3833 190.921 17.5C190.921 17.6167 190.863 17.7333 190.746 17.85C190.646 17.95 190.521 18 190.371 18H185.246C184.729 18 184.371 17.775 184.171 17.325L182.021 12.55H180.996V17.325C180.996 17.5083 180.929 17.6667 180.796 17.8C180.663 17.9333 180.504 18 180.321 18H175.421C175.238 18 175.079 17.9333 174.946 17.8C174.813 17.6667 174.746 17.5083 174.746 17.325V1.175C174.746 0.991666 174.813 0.833333 174.946 0.699999C175.079 0.566666 175.238 0.499999 175.421 0.499999H182.821C185.221 0.499999 187.096 1.04167 188.446 2.125C189.796 3.19167 190.471 4.73333 190.471 6.75C190.471 8.75 189.571 10.325 187.771 11.475L190.846 17.175ZM180.996 5.15V7.8H182.821C183.188 7.8 183.471 7.68333 183.671 7.45C183.871 7.2 183.971 6.89167 183.971 6.525C183.971 6.15833 183.871 5.84167 183.671 5.575C183.488 5.29167 183.204 5.15 182.821 5.15H180.996Z" fill="#169247" fill-opacity="0.73"/>
</svg>
